<?xml version="1.0" encoding="UTF-8" standalone="no"?>
<!-- Uploaded to: SVG Repo, www.svgrepo.com, Generator: SVG Repo Mixer Tools -->

<svg
   fill="#000000"
   height="800px"
   width="800px"
   version="1.1"
   id="Capa_1"
   viewBox="0 0 611.999 611.999"
   xml:space="preserve"
   xmlns:xlink="http://www.w3.org/1999/xlink"
   xmlns="http://www.w3.org/2000/svg"
   xmlns:svg="http://www.w3.org/2000/svg"><defs
   id="defs1"><linearGradient
     id="linearGradient3"><stop
       style="stop-color:#3d475c;stop-opacity:1;"
       offset="0"
       id="stop3" /><stop
       style="stop-color:#687899;stop-opacity:1;"
       offset="1"
       id="stop4" /></linearGradient><linearGradient
     xlink:href="#linearGradient3"
     id="linearGradient4"
     x1="-5.7220459e-06"
     y1="305.99949"
     x2="611.99899"
     y2="305.99949"
     gradientUnits="userSpaceOnUse"
     gradientTransform="translate(-611.99898)" /></defs>

<rect
   style="fill:url(#linearGradient4);stroke:#fffdfd;stroke-width:8.61972"
   id="rect1"
   width="603.37927"
   height="603.37927"
   x="-607.68915"
   y="4.3098545"
   rx="86.197067"
   ry="86.19706"
   transform="rotate(-90)" /><path
   d="m 292.73903,61.202313 c -3.05999,1.835997 -17.95197,10.607983 -33.14994,19.583968 -26.31596,15.503971 -38.55594,22.745959 -74.66388,43.553929 -8.87398,5.09999 -19.99196,11.72998 -24.78595,14.68797 -4.794,2.958 -16.01398,9.58799 -24.98996,14.78998 -8.97599,5.20199 -22.94996,13.46397 -31.10995,18.35997 -23.459957,14.07597 -41.819926,24.88795 -48.449915,28.55995 -3.365995,1.836 -12.647979,7.24199 -20.501966,11.83198 -11.627981,6.93599 -14.789976,9.17998 -16.115973,12.03598 -2.753996,5.91599 -2.141997,9.48598 2.447996,14.07598 5.303991,5.40599 6.527989,5.09999 23.153961,-5.1 18.665969,-11.42398 25.499957,-15.50397 26.213956,-15.50397 0.306,0 0.611999,74.15388 0.611999,164.83173 V 547.7415 l 3.875994,3.87599 3.875993,3.876 224.297625,-0.408 c 243.47359,-0.408 226.94962,0 230.21361,-5.71199 1.02,-1.836 1.428,-35.29194 1.836,-166.15773 l 0.51,-163.91372 12.44398,7.03799 c 33.55794,18.66596 34.27194,18.86996 40.69793,12.44398 2.958,-2.856 3.46799,-4.182 3.46799,-8.15999 0,-3.97799 -0.50999,-5.09999 -3.46799,-7.85399 -1.836,-1.734 -6.52799,-4.79399 -10.40398,-6.73199 -3.876,-1.93799 -16.42198,-8.97598 -27.94796,-15.70797 -11.52598,-6.73199 -26.11195,-14.89198 -32.33394,-18.25797 l -11.52598,-6.01799 V 132.39819 88.640267 l -2.652,-2.039996 c -2.65199,-2.039997 -3.87599,-2.141997 -36.82194,-2.141997 H 433.2948 l -2.958,2.957996 -2.95799,2.957992 v 19.481968 c 0,10.70998 -0.306,19.48197 -0.612,19.48197 -0.306,0 -2.44799,-1.326 -4.79399,-2.958 -2.346,-1.63199 -11.83198,-7.24199 -21.11397,-12.34198 C 376.88889,100.57425 370.6669,97.106252 352.71493,86.396271 337.31296,77.216287 322.11499,68.240301 310.18101,61.304313 303.04102,57.12232 299.77702,57.12232 292.73903,61.202313 Z M 314.159,90.578262 c 14.58597,8.05799 28.96795,16.421968 52.01991,30.089948 11.52598,6.83399 27.13196,15.91198 34.67994,20.19597 7.54799,4.18199 19.99197,11.21998 27.53996,15.60597 7.54799,4.284 15.80997,9.07799 18.35997,10.40399 2.54999,1.42799 11.01598,6.32398 18.86997,10.91398 19.48196,11.32198 39.57593,22.84796 44.06392,24.98996 l 3.57,1.73399 -0.102,164.11773 c -0.102,90.26985 -0.306,164.21973 -0.51,164.32172 -0.102,0.204 -94.45184,0.408 -209.50765,0.51 l -209.303645,0.306 -0.102,-100.97983 c 0,-55.58991 -0.204,-129.64178 -0.408,-164.72972 l -0.408,-63.7499 21.113955,-12.54598 c 11.62798,-6.83398 28.96795,-17.13597 38.45394,-22.84796 25.19396,-14.89197 62.32189,-36.71994 77.00987,-45.18592 7.03799,-4.08 19.68597,-11.42398 28.04995,-16.31998 8.46599,-4.89599 21.11397,-12.137978 28.25396,-16.013968 7.13998,-3.875993 13.25997,-7.547987 13.66797,-8.057986 0.408,-0.611999 1.428,-0.509999 2.856,0.408 1.224,0.815998 6.52799,3.875993 11.83198,6.833986 z m 157.89574,17.033968 11.42398,0.612 v 27.02996 c 0,25.70395 -0.102,26.92795 -1.734,25.49996 -1.02,-0.816 -4.58999,-2.754 -7.85399,-4.284 -3.36599,-1.53 -8.87398,-4.48799 -12.23998,-6.62999 -3.46799,-2.14199 -7.24199,-4.18199 -8.46598,-4.58999 -2.346,-0.714 -2.346,-1.02 -2.346,-18.97197 0,-13.56597 0.306,-18.35997 1.326,-18.66597 1.836,-0.81599 6.93599,-0.81599 19.88997,0 z"
   id="path1"
   style="fill:#ffffff;stroke:none;stroke-width:0.102" /><path
   d="m 273.76707,126.6862 c -1.122,6.42599 -0.102,22.03197 1.63199,23.05196 0.816,0.51 6.42599,1.02 12.54598,1.02 h 10.91398 v -12.13798 c 0,-6.73199 -0.306,-12.85198 -0.61199,-13.76997 -0.51,-1.326 -2.55,-1.632 -12.23998,-1.632 h -11.52599 z"
   id="path2"
   style="fill:#ffffff;stroke:none;stroke-width:0.102" /><path
   d="m 314.975,123.93221 -4.79399,0.408 -0.306,10.40398 c -0.204,5.71199 -0.204,11.62798 0,13.15798 l 0.306,2.85599 h 11.72998 11.72998 l -0.306,-13.56598 -0.306,-13.46397 -6.62999,-0.102 c -3.672,0 -8.77199,0.102 -11.42398,0.306 z"
   id="path3"
   style="fill:#ffffff;stroke:none;stroke-width:0.102" /><path
   d="m 274.88906,164.22214 c -0.306,1.326 -0.51,6.22199 -0.306,11.01598 l 0.306,8.66999 12.03598,0.306 11.93398,0.306 v -9.68999 c 0,-5.30399 -0.306,-10.30198 -0.61199,-11.21998 -0.51,-1.326 -2.55,-1.632 -11.72999,-1.632 -10.60798,0 -11.11798,0.102 -11.62798,2.244 z"
   id="path4"
   style="fill:#ffffff;stroke:none;stroke-width:0.102" /><path
   d="m 311.711,163.91614 c -1.326,1.428 -1.73399,3.87599 -1.73399,10.19998 0,4.488 0.306,8.66999 0.61199,9.28199 0.408,0.612 5.61,1.02 12.34198,1.02 h 11.62798 v -8.05799 c 0,-4.38599 -0.50999,-9.38399 -1.12199,-11.21998 l -1.122,-3.162 h -9.38399 c -7.95598,0 -9.79198,0.306 -11.21998,1.938 z"
   id="path5"
   style="fill:#ffffff;stroke:none;stroke-width:0.102" /><path
   d="m 125.25531,225.52404 c -2.03999,0.714 -2.14199,1.326 -1.52999,9.38398 l 0.61199,8.66999 h -6.42598 c -4.896,0 -6.62999,0.408 -7.13999,1.52999 -0.306,0.816 -0.306,8.87399 0.102,17.84997 l 0.612,16.21798 5.71199,0.306 5.71199,0.306 0.51,9.68998 c 0.51,8.97599 0.714,9.68998 3.05999,11.01598 1.632,0.816 4.48799,1.122 7.95599,0.816 l 5.30399,-0.51 v 76.60187 76.49988 l 3.56999,3.56999 c 3.366,3.366 3.774,3.56999 8.46599,2.856 6.62999,-1.02 298.6555,-1.224 303.34749,-0.204 3.468,0.714 4.182,0.51 7.64999,-2.754 l 3.87599,-3.46799 0.306,-76.60188 0.204,-76.60187 h 7.13999 c 6.93599,0 7.24199,-0.102 8.26199,-2.85599 0.612,-1.53 0.918,-6.42599 0.714,-11.01598 l -0.408,-8.26199 4.79399,0.51 c 2.75399,0.204 6.01799,0.204 7.44599,-0.204 l 2.65199,-0.612 v -16.11597 c 0,-11.21998 -0.408,-16.52398 -1.224,-17.33997 -0.71399,-0.714 -3.97799,-1.224 -7.24198,-1.224 h -6.11999 l 0.51,-6.93599 c 0.204,-3.77399 0.204,-7.85399 -0.102,-9.17999 l -0.612,-2.34599 -177.78571,-0.204 c -97.81783,-0.102 -178.8057,0.102 -179.9277,0.612 z m 336.80344,36.92394 v 15.80997 l -157.79373,0.204 c -86.90386,0.204 -157.99774,0.306 -157.99774,0.306 -0.102,0 -0.51,-7.24199 -0.918,-16.11597 l -0.714,-16.01398 h 158.71174 158.71173 z m -157.38574,40.39193 139.63777,0.306 -0.102,10.30198 v 10.19998 l -140.96376,0.102 -141.06577,0.204 v -11.21998 c 0,-9.07798 0.306,-11.11798 1.428,-10.70998 0.714,0.306 64.15789,0.714 141.06576,0.816 z m 139.22977,50.08192 c 0.204,4.69199 0.306,8.56798 0.306,8.66998 0,0.102 -63.34189,0.306 -140.75976,0.408 l -140.75977,0.306 -0.306,-8.66999 -0.306,-8.56798 140.75977,-0.306 140.65776,-0.306 z m 0.408,31.00794 c -0.306,0.918 -0.612,4.998 -0.612,9.17999 v 7.54799 H 302.93902 162.17925 v -9.17999 -9.17998 h 141.37177 c 128.51978,0 141.37176,0.102 140.75976,1.63199 z m -25.29596,37.02594 25.70396,0.102 v 7.95599 8.05798 l -57.3239,0.612 c -31.61995,0.408 -95.16584,0.714 -141.26977,0.714 h -83.94586 v -8.97598 -8.87399 l 115.56581,0.204 c 63.44389,0.102 127.09179,0.204 141.26976,0.204 z"
   id="path6"
   style="fill:#ffffff;stroke:none;stroke-width:0.102" /><path
   d="m 453.08277,483.99161 c -7.54799,3.67199 -10.40399,11.21998 -6.73199,17.64597 1.938,3.26399 6.42599,6.11999 9.58798,6.11999 6.22199,0 12.23998,-6.22199 12.23998,-12.85198 0,-5.20199 -2.65199,-8.77199 -8.15998,-11.01598 -3.264,-1.326 -4.08,-1.326 -6.93599,0.102 z"
   id="path7"
   style="fill:#ffffff;stroke:none;stroke-width:0.102" /><path
   d="m 146.06328,485.0116 c -7.24199,3.57 -9.58799,11.32199 -5.40599,18.05397 2.44799,3.876 5.91599,5.712 10.81198,5.712 2.652,0 4.28399,-0.918 7.03799,-3.672 1.93799,-2.04 3.87599,-4.89599 4.18199,-6.52799 0.918,-4.07999 -2.142,-10.81198 -6.11999,-13.25998 -3.97799,-2.44799 -6.01799,-2.54999 -10.50598,-0.306 z"
   id="path8"
   style="fill:#ffffff;stroke:none;stroke-width:0.102" /></svg>
